<svg xmlns="http://www.w3.org/2000/svg" viewBox="0 0 1600 1100" width="1600" height="1100" role="img" preserveAspectRatio="xMidYMid slice"> <defs> <linearGradient id="grund" x1=".08" y1="0" x2=".92" y2="1"> <stop offset="0" stop-color="#ffffff"/> <stop offset=".42" stop-color="#eaeeeb"/> <stop offset="1" stop-color="#3c4a59" stop-opacity=".26"/> </linearGradient> <radialGradient id="fenster" cx="0.24" cy=".1" r=".78"> <stop offset="0" stop-color="#ffffff" stop-opacity=".96"/> <stop offset=".55" stop-color="#ffffff" stop-opacity=".2"/> <stop offset="1" stop-color="#ffffff" stop-opacity="0"/> </radialGradient> <linearGradient id="ecke" x1="1" y1="1" x2=".35" y2=".2"> <stop offset="0" stop-color="#3c4a59" stop-opacity=".34"/> <stop offset="1" stop-color="#3c4a59" stop-opacity="0"/> </linearGradient> <filter id="korn"> <feTurbulence type="fractalNoise" baseFrequency=".9" numOctaves="3" stitchTiles="stitch"/> <feColorMatrix type="saturate" values="0"/> <feComponentTransfer><feFuncA type="linear" slope=".18"/></feComponentTransfer> </filter> </defs> <rect width="1600" height="1100" fill="#eaeeeb"/> <rect width="1600" height="1100" fill="url(#grund)"/> <rect x="0" y="0" width="1600" height="700" rx="0" fill="#ffffff" opacity="0.5"/> <rect x="110" y="130" width="700" height="420" rx="8" fill="#ffffff" opacity="0.9"/> <rect x="160" y="180" width="82" height="150" rx="4" fill="#5f8f86" opacity="0.2"/><rect x="290" y="180" width="82" height="150" rx="4" fill="#5f8f86" opacity="0.2"/><rect x="420" y="180" width="82" height="150" rx="4" fill="#5f8f86" opacity="0.2"/><rect x="550" y="180" width="82" height="150" rx="4" fill="#5f8f86" opacity="0.2"/><rect x="680" y="180" width="82" height="150" rx="4" fill="#5f8f86" opacity="0.2"/> <rect x="160" y="370" width="82" height="120" rx="4" fill="#3c4a59" opacity="0.12"/><rect x="290" y="370" width="82" height="120" rx="4" fill="#3c4a59" opacity="0.12"/><rect x="420" y="370" width="82" height="120" rx="4" fill="#3c4a59" opacity="0.12"/><rect x="550" y="370" width="82" height="120" rx="4" fill="#3c4a59" opacity="0.12"/><rect x="680" y="370" width="82" height="120" rx="4" fill="#3c4a59" opacity="0.12"/> <rect x="1000" y="200" width="460" height="350" rx="10" fill="#3c4a59" opacity="0.07"/> <path d="M0 700 H1600 V1100 H0z" fill="#3c4a59" opacity="0.08"/> <path d="M0 1100 V830 H1600 V1100z" fill="#ffffff" opacity="0.62"/> <path d="M300 790 l30 -130 h68 l30 130z" fill="#5f8f86" opacity="0.85"/> <path d="M314 726 h86 l16 64 h-118z" fill="#5f8f86" opacity="1"/><path d="M560 790 l30 -130 h68 l30 130z" fill="#5f8f86" opacity="0.85"/> <path d="M574 726 h86 l16 64 h-118z" fill="#5f8f86" opacity="1"/><path d="M820 790 l30 -130 h68 l30 130z" fill="#5f8f86" opacity="0.85"/> <path d="M834 726 h86 l16 64 h-118z" fill="#5f8f86" opacity="1"/><path d="M1080 790 l30 -130 h68 l30 130z" fill="#5f8f86" opacity="0.85"/> <path d="M1094 726 h86 l16 64 h-118z" fill="#5f8f86" opacity="1"/> <rect width="1600" height="1100" fill="url(#fenster)"/> <rect width="1600" height="1100" fill="url(#ecke)"/> <rect width="1600" height="1100" filter="url(#korn)" opacity=".55" style="mix-blend-mode:multiply"/>
</svg>